<svg width="1080" height="473" viewBox="0 0 1080 473" fill="none" xmlns="http://www.w3.org/2000/svg">
<path opacity="0.025641" d="M1049.48 398.889C935.122 474.124 673.424 604.783 541.535 525.535C409.645 446.288 264.383 547.916 208.238 608.636L5.19159 486.633" stroke="white"/>
<path opacity="0.0512821" d="M1051.62 375.965C939.955 455.145 682.977 594.857 548.402 520.261C413.828 445.665 272.201 552.3 218.209 614.942L11.0281 500.1" stroke="white"/>
<path opacity="0.0769231" d="M1053.14 353.151C944.301 436.18 692.355 584.775 555.259 514.922C418.163 445.068 280.344 556.581 228.571 621.069L17.5085 513.527" stroke="white"/>
<path opacity="0.102564" d="M1054.03 330.47C948.16 417.247 701.553 574.544 562.103 509.517C422.652 444.491 288.809 560.745 239.318 627.001L24.6313 526.891" stroke="white"/>
<path opacity="0.128205" d="M1054.31 307.943C951.533 398.362 710.566 564.17 568.931 504.049C427.296 443.929 297.592 564.784 250.444 632.727L32.3935 540.17" stroke="white"/>
<path opacity="0.153846" d="M1053.98 285.591C954.422 379.542 719.389 553.658 575.742 498.517C432.095 443.377 306.687 568.685 261.939 638.231L40.7918 553.341" stroke="white"/>
<path opacity="0.179487" d="M1053.05 263.436C956.831 360.804 728.017 543.017 582.534 492.923C437.05 442.829 316.092 572.438 273.798 643.504L49.8224 566.383" stroke="white"/>
<path opacity="0.205128" d="M1051.53 241.498C958.761 342.165 736.446 532.252 589.303 487.266C442.16 442.28 325.798 576.031 286.011 648.529L59.4802 579.272" stroke="white"/>
<path opacity="0.230769" d="M1049.41 219.798C960.218 323.641 744.672 521.372 596.049 481.548C447.425 441.724 335.802 579.455 298.569 653.298L69.7595 591.989" stroke="white"/>
<path opacity="0.25641" d="M1046.72 198.357C961.205 305.249 752.691 510.382 602.768 475.769C452.845 441.157 346.097 582.699 311.464 657.797L80.6538 604.51" stroke="white"/>
<path opacity="0.282051" d="M1043.46 177.194C961.727 287.006 760.499 499.29 609.459 469.931C458.42 440.572 356.677 585.753 324.685 662.014L92.1561 616.815" stroke="white"/>
<path opacity="0.307692" d="M1039.64 156.329C961.789 268.927 768.092 488.104 616.12 464.034C464.148 439.964 367.533 588.608 338.223 665.939L104.258 628.882" stroke="white"/>
<path opacity="0.333333" d="M1035.27 135.781C961.398 251.028 775.468 476.832 622.749 458.08C470.029 439.329 378.661 591.254 352.067 669.56L116.952 640.691" stroke="white"/>
<path opacity="0.358974" d="M1030.37 115.571C960.56 233.325 782.624 465.48 629.343 452.07C476.062 438.66 390.052 593.681 366.207 672.868L130.227 652.222" stroke="white"/>
<path opacity="0.384615" d="M1024.94 95.7147C959.282 215.833 789.557 454.057 635.901 446.005C482.245 437.952 401.698 595.88 380.631 675.851L144.074 663.454" stroke="white"/>
<path opacity="0.410256" d="M1019 76.232C957.572 198.569 796.264 442.571 642.421 439.886C488.578 437.2 413.591 597.844 395.328 678.501L158.483 674.367" stroke="white"/>
<path opacity="0.435897" d="M1012.55 57.1397C955.438 181.546 802.744 431.029 648.901 433.714C495.058 436.399 425.723 599.562 410.286 680.807L173.441 684.941" stroke="white"/>
<path opacity="0.461538" d="M1005.63 38.4555C952.889 164.779 808.995 419.439 655.339 427.492C501.684 435.545 438.085 601.027 425.493 682.762L188.937 695.159" stroke="white"/>
<path opacity="0.487179" d="M998.233 20.1955C949.934 148.283 815.015 407.809 661.734 421.22C508.453 434.63 450.668 602.232 440.936 684.356L204.957 705.002" stroke="white"/>
<path opacity="0.512821" d="M990.382 2.37659C946.582 132.071 820.803 396.149 668.083 414.9C515.364 433.652 463.464 603.168 456.604 685.582L221.488 714.45" stroke="white"/>
<path opacity="0.538462" d="M982.091 -14.9861C942.845 116.158 826.358 384.464 674.386 408.534C522.414 432.604 476.461 603.828 472.482 686.432L238.517 723.488" stroke="white"/>
<path opacity="0.564103" d="M973.377 -31.8778C938.731 100.556 831.679 372.764 680.64 402.123C529.6 431.482 489.652 604.206 488.557 686.898L256.028 732.097" stroke="white"/>
<path opacity="0.589744" d="M964.257 -48.2833C934.254 85.2792 836.767 361.057 686.844 395.67C536.921 430.282 503.025 604.295 504.817 686.974L274.007 740.261" stroke="white"/>
<path opacity="0.615385" d="M954.747 -64.1891C929.423 70.3392 841.62 349.352 692.997 389.175C544.373 428.999 516.57 604.088 521.247 686.655L292.437 747.964" stroke="white"/>
<path opacity="0.641026" d="M944.865 -79.5819C924.252 55.7482 846.24 337.655 699.096 382.641C551.953 427.627 530.278 603.58 537.833 685.934L311.302 755.191" stroke="white"/>
<path opacity="0.666667" d="M934.629 -94.4489C918.752 41.5181 850.626 325.976 705.142 376.07C559.658 426.164 544.137 602.766 554.561 684.806L330.586 761.926" stroke="white"/>
<path opacity="0.692308" d="M924.059 -108.778C912.936 27.6601 854.779 314.322 711.132 369.463C567.485 424.604 558.136 601.64 571.418 683.266L350.27 768.156" stroke="white"/>
<path opacity="0.717949" d="M913.172 -122.559C906.817 14.1849 858.7 302.702 717.065 362.822C575.43 422.943 572.266 600.198 588.388 681.31L370.338 773.867" stroke="white"/>
<path opacity="0.74359" d="M901.989 -135.779C900.41 1.10275 862.391 291.123 722.941 356.15C583.491 421.177 586.514 598.434 605.457 678.934L390.77 779.045" stroke="white"/>
<path opacity="0.769231" d="M890.528 -148.43C893.728 -11.5762 865.854 279.594 728.758 349.448C591.662 419.302 600.869 596.346 622.61 676.136L411.548 783.678" stroke="white"/>
<path opacity="0.794872" d="M878.81 -160.501C886.784 -23.8426 869.089 268.123 734.514 342.719C599.94 417.315 615.321 593.93 639.833 672.913L432.652 787.755" stroke="white"/>
<path opacity="0.820513" d="M866.856 -171.985C879.595 -35.6881 872.099 256.718 740.21 335.965C608.321 415.212 629.856 591.182 657.11 669.261L454.063 791.264" stroke="white"/>
<path opacity="0.846154" d="M854.686 -182.873C872.174 -47.1039 874.888 245.385 745.844 329.187C616.801 412.989 644.465 588.1 674.427 665.181L475.762 794.195" stroke="white"/>
<path opacity="0.871795" d="M842.321 -193.159C864.536 -58.0823 877.456 234.134 751.416 322.388C625.376 410.642 659.134 584.682 691.768 660.67L497.727 796.539" stroke="white"/>
<path opacity="0.897436" d="M829.782 -202.835C856.698 -68.6159 879.808 222.972 756.925 315.571C634.042 408.17 673.853 580.925 709.119 655.728L519.938 798.286" stroke="white"/>
<path opacity="0.923077" d="M817.091 -211.896C848.674 -78.6981 881.947 211.905 762.37 308.736C642.793 405.568 688.609 576.828 726.464 650.355L542.373 799.429" stroke="white"/>
<path opacity="0.948718" d="M804.268 -220.337C840.481 -88.3229 883.875 200.942 767.751 301.888C651.626 402.833 703.391 572.39 743.789 644.551L565.013 799.959" stroke="white"/>
<path opacity="0.974359" d="M791.337 -228.154C832.135 -97.4843 885.598 190.09 773.067 295.027C660.536 399.963 718.187 567.611 761.079 638.318L587.835 799.87" stroke="white"/>
</svg>
