<svg width="426" height="344" viewBox="0 0 426 344" fill="none" xmlns="http://www.w3.org/2000/svg">
<path opacity="0.025641" d="M30.2447 140.889C144.607 216.124 406.305 346.782 538.194 267.535C670.084 188.288 815.346 289.916 871.491 350.636L1074.54 228.633" stroke="white"/>
<path opacity="0.0512821" d="M28.1065 117.965C139.774 197.145 396.752 336.857 531.327 262.261C665.902 187.665 807.529 294.3 861.52 356.942L1068.7 242.1" stroke="white"/>
<path opacity="0.0769231" d="M26.5922 95.151C135.428 178.18 387.374 326.775 524.47 256.921C661.566 187.068 799.386 298.581 851.158 363.069L1062.22 255.527" stroke="white"/>
<path opacity="0.102564" d="M25.6974 72.4697C131.569 159.247 378.176 316.544 517.627 251.517C657.077 186.49 790.92 302.745 840.411 369.001L1055.1 268.891" stroke="white"/>
<path opacity="0.128205" d="M25.4172 49.9426C128.196 140.362 369.163 306.17 510.798 246.049C652.433 185.929 782.138 306.784 829.286 374.726L1047.34 282.17" stroke="white"/>
<path opacity="0.153846" d="M25.7461 27.5908C125.307 121.542 360.34 295.658 503.987 240.517C647.634 185.377 773.042 310.685 817.79 380.231L1038.94 295.341" stroke="white"/>
<path opacity="0.179487" d="M26.677 5.43568C122.898 102.804 351.712 285.017 497.196 234.923C642.679 184.829 763.638 314.437 805.931 385.503L1029.91 308.383" stroke="white"/>
<path opacity="0.205128" d="M28.2031 -16.5025C120.968 84.1645 343.283 274.252 490.426 229.266C637.569 184.28 753.931 318.031 793.719 390.529L1020.25 321.272" stroke="white"/>
<path opacity="0.230769" d="M30.3164 -38.2021C119.511 65.6411 335.057 263.371 483.681 223.548C632.304 183.724 743.927 321.455 781.16 395.298L1009.97 333.989" stroke="white"/>
<path opacity="0.25641" d="M33.008 -59.6436C118.525 47.2491 327.038 252.382 476.961 217.769C626.884 183.157 733.632 324.699 768.266 399.796L999.075 346.51" stroke="white"/>
<path opacity="0.282051" d="M36.2688 -80.8063C118.003 29.0059 319.23 241.29 470.27 211.931C621.309 182.572 723.053 327.753 755.044 404.014L987.573 358.815" stroke="white"/>
<path opacity="0.307692" d="M40.0888 -101.671C117.941 10.9263 311.637 230.104 463.609 206.034C615.581 181.964 712.196 330.608 741.506 407.938L975.471 370.882" stroke="white"/>
<path opacity="0.333333" d="M44.4568 -122.219C118.331 -6.97246 304.261 218.832 456.98 200.08C609.7 181.329 701.068 333.254 727.662 411.56L962.777 382.691" stroke="white"/>
<path opacity="0.358974" d="M49.362 -142.429C119.17 -24.6751 297.105 207.48 450.386 194.07C603.667 180.66 689.677 335.681 713.522 414.868L949.502 394.222" stroke="white"/>
<path opacity="0.384615" d="M54.7919 -162.285C120.448 -42.1669 290.173 196.057 443.828 188.004C597.484 179.952 678.032 337.88 699.098 417.851L935.655 405.453" stroke="white"/>
<path opacity="0.410256" d="M60.7337 -181.768C122.157 -59.4312 283.465 184.571 437.308 181.886C591.151 179.2 666.138 339.844 684.401 420.501L921.246 416.367" stroke="white"/>
<path opacity="0.435897" d="M67.1746 -200.861C124.291 -76.4546 276.985 173.029 430.828 175.714C584.671 178.399 654.006 341.562 669.443 422.807L906.288 426.941" stroke="white"/>
<path opacity="0.461538" d="M74.1001 -219.545C126.84 -93.2213 270.734 161.439 424.39 169.492C578.046 177.544 641.644 343.027 654.236 424.762L890.793 437.159" stroke="white"/>
<path opacity="0.487179" d="M81.496 -237.804C129.795 -109.717 264.714 149.809 417.995 163.22C571.276 176.63 629.061 344.232 638.793 426.356L874.772 447.002" stroke="white"/>
<path opacity="0.512821" d="M89.3471 -255.624C133.147 -125.929 258.926 138.148 411.646 156.9C564.365 175.652 616.266 345.168 623.126 427.582L858.241 456.45" stroke="white"/>
<path opacity="0.538462" d="M97.6378 -272.986C136.885 -141.842 253.371 126.464 405.343 150.534C557.316 174.604 603.268 345.828 607.248 428.432L841.212 465.488" stroke="white"/>
<path opacity="0.564103" d="M106.352 -289.878C140.998 -157.444 248.05 114.764 399.089 144.123C550.129 173.482 590.078 346.206 591.172 428.898L823.701 474.097" stroke="white"/>
<path opacity="0.589744" d="M115.473 -306.283C145.476 -172.721 242.962 103.057 392.885 137.67C542.808 172.282 576.705 346.295 574.913 428.974L805.722 482.261" stroke="white"/>
<path opacity="0.615385" d="M124.983 -322.189C150.306 -187.661 238.109 91.3517 386.733 131.175C535.356 170.999 563.159 346.088 558.483 428.655L787.292 489.964" stroke="white"/>
<path opacity="0.641026" d="M134.865 -337.582C155.478 -202.252 233.49 79.6548 380.633 124.641C527.776 169.627 549.452 345.58 541.896 427.933L768.427 497.191" stroke="white"/>
<path opacity="0.666667" d="M145.1 -352.449C160.978 -216.482 229.104 67.9755 374.587 118.07C520.071 168.164 535.592 344.766 525.168 426.805L749.143 503.926" stroke="white"/>
<path opacity="0.692308" d="M155.671 -366.778C166.793 -230.34 224.951 56.322 368.597 111.463C512.244 166.604 521.593 343.64 508.311 425.266L729.459 510.156" stroke="white"/>
<path opacity="0.717949" d="M166.557 -380.558C172.912 -243.815 221.029 44.7019 362.664 104.822C504.299 164.943 507.463 342.198 491.341 423.31L709.391 515.867" stroke="white"/>
<path opacity="0.74359" d="M177.741 -393.779C179.319 -256.897 217.338 33.1232 356.788 98.1499C496.239 163.177 493.215 340.434 474.272 420.934L688.959 521.045" stroke="white"/>
<path opacity="0.769231" d="M189.201 -406.43C186.001 -269.576 213.876 21.5944 350.972 91.4483C488.068 161.302 478.86 338.346 457.119 418.136L668.181 525.678" stroke="white"/>
<path opacity="0.794872" d="M200.919 -418.501C192.945 -281.843 210.64 10.1233 345.215 84.7193C479.79 159.315 464.409 335.93 439.896 414.913L647.077 529.755" stroke="white"/>
<path opacity="0.820513" d="M212.873 -429.985C200.135 -293.688 207.63 -1.28235 339.519 77.9647C471.409 157.212 449.873 333.182 422.619 411.261L625.666 533.264" stroke="white"/>
<path opacity="0.846154" d="M225.043 -440.874C207.556 -305.104 204.842 -12.615 333.885 71.1867C462.928 154.988 435.265 330.1 405.303 407.18L603.968 536.195" stroke="white"/>
<path opacity="0.871795" d="M237.408 -451.159C215.193 -316.083 202.273 -23.8663 328.313 64.3879C454.353 152.642 420.595 326.681 387.961 402.669L582.003 538.539" stroke="white"/>
<path opacity="0.897436" d="M249.947 -460.835C223.031 -326.616 199.921 -35.0288 322.804 57.5704C445.687 150.169 405.876 322.925 370.61 397.727L559.792 540.286" stroke="white"/>
<path opacity="0.923077" d="M262.639 -469.896C231.055 -336.698 197.783 -46.0949 317.359 50.7364C436.936 147.568 391.12 318.828 353.265 392.355L537.356 541.429" stroke="white"/>
<path opacity="0.948718" d="M275.461 -478.337C239.248 -346.323 195.854 -57.0579 311.978 43.8876C428.103 144.833 376.338 314.39 335.94 386.551L514.716 541.959" stroke="white"/>
<path opacity="0.974359" d="M288.392 -486.154C247.595 -355.484 194.132 -67.9099 306.662 37.0267C419.193 141.963 361.542 309.611 318.65 380.318L491.894 541.87" stroke="white"/>
</svg>
